<!-- Created with Inkscape (http://www.inkscape.org/) -->
<svg width="174.88" height="56.978" version="1.1" viewBox="0 0 174.88 56.978" xmlns="http://www.w3.org/2000/svg">
 <defs>
  <clipPath id="clipPath6-0">
   <path transform="translate(-403.7 -118.56)" d="m0 0h595.44v841.68h-595.44z"/>
  </clipPath>
 </defs>
 <g transform="translate(-245,-1009)">
  <path transform="matrix(1.3333 0 0 -1.3333 255.47 1011.2)" d="m120.3 1.6145-4.2978-1.2041v-0.16406l2.2441-0.84814v-4.8999c-0.794 0.246-1.779 0.46582-2.874 0.46582-4.188 0-6.98-2.9563-6.98-6.7603 0-4.243 2.5473-6.542 5.2573-6.542 2.134 0 3.5288 0.93033 4.5688 2.7363h0.02783v-2.792h0.16406l4.0518 1.2041v0.1919c-0.684 0.274-1.6708 0.68461-1.9438 0.84961v17.763h-0.21826zm-126.43-0.16406v-0.27393c0.958-0.11 1.916-0.27398 2.436-0.87598 0.41-0.493 0.38232-1.9972 0.38232-3.2842v-5.3379c0-1.998 6.328e-4 -4.653-0.026367-5.666-0.028-1.012-0.11059-2.1064-0.32959-2.9004-0.246-0.848-0.82112-1.5601-1.7241-1.5601-0.301 0-0.65614 0.19099-0.84814 0.43799v0.082031c0.767 0.109 1.3418 0.43813 1.3418 1.2861 0 0.739-0.6028 1.3418-1.3418 1.3418-0.848 0-1.6143-0.60303-1.6143-1.478 0-1.369 1.2034-1.9438 2.3804-1.9438 1.067 0 2.3811 0.43733 3.5581 1.3403 0.931 0.712 1.5879 1.5343 1.5879 2.7393v6.4307c0 2.244 8.3206e-4 3.8318 0.027832 5.6938 0.027 0.821-7.0672e-4 1.9431 0.30029 2.5181 0.465 0.876 1.5338 1.0663 2.2998 1.1763v0.27393h-8.4302zm62.3 0v-0.27393c0.985-0.109 1.4232-0.24531 1.9702-0.82031 0.438-0.465 0.52085-2.0538 0.54785-3.3398 0.027-2.19 0.026367-3.1474 0.026367-5.3364 0-1.999-0.025734-4.654-0.052734-5.666-0.028-1.177-0.13765-2.5195-0.49365-2.9575-0.493-0.574-1.3968-0.90304-2.2998-1.04v-0.27246h9.4438c1.587 0 3.4204 0.026387 4.8164 0.54639 1.615 0.602 3.394 2.2457 3.394 4.8457 0 2.928-2.6551 4.6243-5.3101 4.9263v0.10986c2.463 0.493 4.188 2.0243 4.188 4.4063 0 2.162-1.3682 3.6139-3.2021 4.2979-1.177 0.438-2.4082 0.57422-3.8042 0.57422h-9.2241zm7.4985-0.35596c1.26 0 2.354-0.19139 3.1479-0.54639 1.396-0.603 2.436-2.1637 2.436-3.9697 0-2.491-1.7233-4.3251-5.0083-4.5161-0.493-0.028-1.3419-0.027832-2.5459-0.027832 0 0.329-0.027801 4.3808 0.054199 6.9258 0.055 1.341 0.083528 1.4774 0.16553 1.9424 0.328 0.11 0.98449 0.19189 1.7505 0.19189zm-46.588-6.1304-3.5845-1.2861v-0.16553c0.438-0.191 0.90247-0.43642 1.2305-0.62842 0.247-0.164 0.27539-0.30168 0.27539-0.57568v-9.4146c0-0.575-0.68469-0.79398-1.5337-0.87598v-0.27393h5.3101v0.27393c-0.739 0.109-1.3674-5.5e-4 -1.5044 0.71045v8.978c0.958 1.013 1.5587 1.5337 2.7627 1.5337 1.889 0 2.5474-1.3147 2.5474-3.4497v-7.0063c0-0.575-0.63072-0.71211-1.6157-0.76611v-0.27393h5.3921v0.27393c-0.629 0.082-1.478 0.13708-1.478 0.68408v8.8403c0.876 0.985 1.5602 1.6978 2.7642 1.6978 1.889 0 2.5459-1.3691 2.5459-3.4761v-6.98c0-0.575-0.63072-0.68475-1.6157-0.73975v-0.30029h5.584v0.24609c-0.63 0.082-1.6699 0.16491-1.6699 0.71191v8.1563c0 2.381-1.0952 4.106-3.2021 4.106-1.971 0-3.7762-1.8338-4.4062-3.1758h-0.082031c-0.247 1.916-1.3961 3.1758-3.1201 3.1758-1.971 0-3.6409-1.6699-4.3799-2.9839l-0.055664 0.027832v2.9561h-0.16406zm34.189 0c-2.381 0-4.4077-1.4786-4.4077-3.7236 0-1.614 0.95864-2.8734 2.3276-3.3384 0.739-0.246 1.6698-0.46572 2.6558-0.65772 1.232-0.246 1.9966-1.0401 1.9966-2.1621 0-2.08-1.122-3.0659-2.874-3.0659-2.409 0-3.4209 2.3818-4.0239 4.1338h-0.21826v-3.6138c1.205-0.547 2.6542-0.90234 4.2422-0.90234 2.682 0 5.1182 1.259 5.1182 4.106 0 1.834-1.3131 3.2283-2.9561 3.6123l-2.5444 0.57568c-1.15 0.273-2.0259 0.76545-2.0259 2.1064 0 1.67 1.2582 2.5459 2.4902 2.5459 2.053 0 3.0124-1.5598 4.0254-3.7778l0.21826 0.055664-0.32959 3.394c-1.04 0.411-2.1613 0.71191-3.6943 0.71191zm51.406 0-3.5859-1.396v-0.16406c0.438-0.192 0.90393-0.49355 1.2319-0.68555 0.247-0.164 0.27392-0.30022 0.27392-0.57422v-9.252c0-0.575-0.68422-0.79398-1.5322-0.87598v-0.27393h6.1289v0.27393c-0.739 0.11-2.0787 0.02938-2.3247 0.71338v7.8823c0.411 1.122 1.2039 2.4902 2.1079 2.4902 1.012 0 0.95812-0.98584 2.1621-0.98584 0.629 0 1.1763 0.602 1.1763 1.396 0 0.849-0.73909 1.4517-1.6421 1.4517-2.299 0-3.449-2.9297-3.832-3.8057h-0.0542l0.0542 3.8057h-0.16406zm-94.601-0.0014648c-0.93 0-3.1188-0.92878-5.0068-2.0508-0.603-0.356-1.6157-0.87725-1.6157-1.7812 0-0.547 0.49141-1.04 1.0664-1.04 0.602 0 1.2598 0.49431 1.2598 0.9873v1.2305c0 0.438 1.1492 1.396 2.3262 1.396 1.724 0 2.1357-1.0958 2.1357-1.2598v-2.8184c-0.767-0.465-1.9987-1.0124-4.4077-2.5444-1.204-0.767-2.1343-1.7526-2.1343-2.7656 0-1.889 1.3954-2.6001 2.5444-2.6001 1.944 0 3.3399 1.5057 3.9419 2.4917l0.055664-0.027832c0-1.834 1.1484-2.5181 2.3804-2.5181 1.533 0 2.628 1.3677 2.71 2.7627h-0.16406c-0.136-0.547-0.4928-0.92871-1.3418-0.92871-0.711 0-1.396 0.38242-1.396 2.0244 0 2.491 0.055664 3.942 0.055664 6.542 0 0.63-0.027063 1.3697-0.16406 1.6157-0.356 0.712-1.2876 1.2847-2.2456 1.2847zm32.055 0c-3.531 0-5.8037-3.2571-5.8037-6.3501 0-3.804 2.436-6.9507 6.186-6.9507 3.011 0 4.872 2.5992 5.146 4.2422l-0.21826 0.0542c-0.438-1.341-1.944-2.4082-3.75-2.4082-3.367 0-5.0918 2.7092-5.0918 5.8022 0 0.411 0.055664 0.8217 0.055664 1.0957h8.7861c-0.219 3.066-2.4361 4.5146-5.3101 4.5146zm40.292 0c-3.531 0-5.8037-3.2571-5.8037-6.3501 0-3.804 2.436-6.9507 6.186-6.9507 3.011 0 4.872 2.5992 5.146 4.2422l-0.21826 0.0542c-0.438-1.341-1.944-2.4082-3.75-2.4082-3.367 0-5.0918 2.7092-5.0918 5.8022 0 0.411 0.055664 0.8217 0.055664 1.0957h8.7861c-0.219 3.066-2.4361 4.5146-5.3101 4.5146zm13.276 0c-0.931 0-3.1218-0.92878-5.0098-2.0508-0.602-0.356-1.6143-0.87725-1.6143-1.7812 0-0.547 0.49141-1.04 1.0664-1.04 0.602 0 1.2598 0.49431 1.2598 0.9873v1.2305c0 0.438 1.1492 1.396 2.3262 1.396 1.724 0 2.1357-1.0958 2.1357-1.2598v-2.8184c-0.767-0.465-1.9987-1.0124-4.4077-2.5444-1.204-0.767-2.1343-1.7526-2.1343-2.7656 0-1.889 1.3959-2.6001 2.5459-2.6001 1.943 0 3.3384 1.5057 3.9404 2.4917l0.055664-0.027832c0-1.834 1.1484-2.5181 2.3804-2.5181 1.533 0 2.628 1.3677 2.71 2.7627h-0.16406c-0.137-0.547-0.4928-0.92871-1.3418-0.92871-0.711 0-1.3945 0.38242-1.3945 2.0244 0 2.491 0.054199 3.942 0.054199 6.542 0 0.63-0.027063 1.3697-0.16406 1.6157-0.356 0.712-1.2861 1.2847-2.2441 1.2847zm-53.542-0.46436c1.56 0 2.5737-1.1214 2.5737-2.4624 0-0.493-0.13779-0.7133-0.38379-0.9873-0.356-0.136-0.849-0.1626-1.396-0.1626-1.697-0.027-2.5992-0.055664-4.2422-0.055664 0.11 0.903 1.3952 3.668 3.4482 3.668zm40.292 0c1.56 0 2.5737-1.1214 2.5737-2.4624 0-0.493-0.13779-0.7133-0.38379-0.9873-0.356-0.136-0.849-0.1626-1.396-0.1626-1.697-0.027-2.5992-0.055664-4.2422-0.055664 0.11 0.903 1.3952 3.668 3.4482 3.668zm34.518-0.054199c1.068 0 2.4902-0.9857 3.2842-2.4917v-6.5142c-0.301-1.56-1.5059-2.71-2.9839-2.71-2.846 0-4.3242 2.8191-4.3242 5.8301 0 3.011 1.2049 5.8857 4.0239 5.8857zm-53.268-2.8198h2.6558c1.04 0 1.7783-0.081125 2.5723-0.32812 1.943-0.629 3.394-2.3819 3.394-4.4619 0-1.834-0.9032-3.2031-2.4082-3.9961-1.177-0.602-2.4917-0.68408-3.5317-0.68408-1.232 0-1.8341 0.30092-2.1621 0.71191-0.438 0.575-0.46519 1.4504-0.49219 2.8184-0.027 1.204-0.027832 3.5859-0.027832 5.9399zm-53.458-2.436v-4.2144c0-0.274-0.08259-0.54811-0.32959-0.76611-0.602-0.602-1.341-0.79394-2.272-0.79394-1.067 0-1.7783 0.90235-1.7783 1.8604 0 1.861 3.0659 2.9561 4.3799 3.9141zm85.622 0v-4.2144c0-0.274-0.08259-0.54811-0.32959-0.76611-0.602-0.602-1.3405-0.79394-2.2705-0.79394-1.068 0-1.7798 0.90235-1.7798 1.8604 0 1.861 3.0659 2.9561 4.3799 3.9141zm-80.512-10.299c-3.449 0-6.4043-3.1193-6.4043-6.8423 0-4.352 3.4491-6.5142 6.3501-6.5142 3.969 0 6.5962 3.1752 6.5962 6.5142 0 4.708-3.695 6.8423-6.542 6.8423zm41.498 0-4.0503-1.2041v-0.1919c0.684-0.274 1.6694-0.68314 1.9424-0.84814v-17.764h0.21973l4.2979 1.2041v0.16406l-2.2456 0.84961v4.8984c0.794-0.246 1.779-0.46436 2.874-0.46436 4.188 0 6.98 2.9563 6.98 6.7603 0 4.243-2.5459 6.542-5.2559 6.542-2.134 0-3.5303-0.9318-4.5703-2.7378h-0.027832v2.792h-0.16406zm34.189 0c-2.026 0-3.5859-1.6429-4.3799-2.9019l-0.027832 0.027832v2.8198h-0.1919l-3.8862-0.76611v-0.16553c0.437-0.191 1.2042-0.51945 1.5322-0.71045 0.247-0.165 0.27393-0.30268 0.27393-0.57568v-10.812h4.5981v0.30176c-0.794 0.083-1.6142 0.16496-2.0522 0.35596-0.219 0.301-0.27393 0.98433-0.27393 1.3403v7.8018c0.684 0.849 1.4237 1.6963 2.9297 1.6963 1.998 0 2.6001-1.1493 2.6001-3.5303v-7.9658h4.2422v0.30176c-0.657 0.055-1.5332-1.17e-4 -1.8062 0.62988-0.11 0.219-0.1377 1.0393-0.1377 1.3403v6.6797c0 2.655-1.0944 4.1323-3.4204 4.1323zm12.344 0c-3.449 0-6.4058-3.1193-6.4058-6.8423 0-4.352 3.4496-6.5142 6.3516-6.5142 3.968 0 6.5962 3.1752 6.5962 6.5142 0 4.708-3.695 6.8423-6.542 6.8423zm-69.171-0.026368c-2.299 0-3.4484-1.3965-3.8584-2.5195l0.16406-0.082031c0.52 0.739 1.1493 1.0679 2.2163 1.0679 1.287 0 2.1621-0.7933 2.1621-2.6543v-7.1997h-4.1602l-0.84814-1.6699h5.064v-2.3804h0.21826l3.9697 3.75v0.30029h-1.998c0 2.381 0.0542 5.5849 0.0542 9.0059 0 1.177-1.4779 2.3818-2.9839 2.3818zm7.8296-0.027832c-1.533 0-2.628-1.3692-2.71-2.7642h0.16406c0.137 0.547 0.4928 0.93018 1.3418 0.93018 0.711 0 1.3945-0.38388 1.3945-2.0259 0-2.491-0.052735-3.942-0.052735-6.542 0-0.63 0.027063-1.3683 0.16406-1.6143 0.356-0.712 1.2847-1.2861 2.2427-1.2861 0.931 0 3.1218 0.93025 5.0098 2.0522 0.602 0.356 1.6143 0.87579 1.6143 1.7798 0 0.547-0.49141 1.04-1.0664 1.04-0.603 0-1.2583-0.49284-1.2583-0.98584v-1.2319c0-0.438-1.1506-1.396-2.3276-1.396-1.724 0-2.1357 1.0958-2.1357 1.2598v2.8184c0.767 0.465 1.9987 1.0139 4.4077 2.5459 1.204 0.767 2.1343 1.7512 2.1343 2.7642 0 1.889-1.3959 2.6001-2.5459 2.6001-1.943 0-3.3384-1.5042-3.9404-2.4902l-0.055664 0.027832c0 1.834-1.1484 2.5181-2.3804 2.5181zm-47.574-0.082031v-0.24609c0.63-0.082 1.6699-0.16491 1.6699-0.71191v-8.0479c0-2.463 1.1776-4.2144 3.2856-4.2144 1.97 0 3.6665 1.7234 4.4604 2.9824l0.054199-0.026367v-2.9561h0.16406l3.5859 1.2861v0.16406c-0.437 0.191-0.90393 0.43788-1.2319 0.62988-0.247 0.164-0.27393 0.30022-0.27393 0.57422v9.416c0 0.575 0.68569 0.79398 1.5337 0.87598v0.27393h-5.2837v-0.27393c0.739-0.109 1.341-9.15e-4 1.478-0.71191v-8.978c-0.985-0.985-1.6422-1.5044-2.8462-1.5044-1.889 0-2.6279 1.4223-2.6279 3.5303v6.8979c0 0.575 0.63072 0.68328 1.6157 0.73828v0.30176h-5.584zm28.358 0v-0.27393c0.739-0.109 1.615-9.15e-4 1.752-0.71191v-12.234h0.16406l3.6943 1.2041v0.16406c-0.52 0.164-0.9845 0.41088-1.3125 0.62988-0.247 0.164-0.27393 0.41008-0.27393 0.68408v9.3882c0 0.685 1.0124 0.79398 1.8604 0.87598v0.27393h-5.8843zm45.028 0v-0.24609c0.63-0.082 1.6699-0.16491 1.6699-0.71191v-8.0479c0-2.463 1.1772-4.2144 3.2842-4.2144 1.971 0 3.6679 1.7234 4.4619 2.9824l0.054199-0.026367v-2.9561h0.16553l3.5845 1.2861v0.16406c-0.438 0.191-0.90247 0.43788-1.2305 0.62988-0.247 0.164-0.27393 0.30022-0.27393 0.57422v9.416c0 0.575 0.68323 0.79398 1.5322 0.87598v0.27393h-5.2822v-0.27393c0.739-0.109 1.341-9.15e-4 1.478-0.71191v-8.978c-0.985-0.985-1.6422-1.5044-2.8462-1.5044-1.889 0-2.6279 1.4223-2.6279 3.5303v6.8979c0 0.575 0.62826 0.68328 1.6143 0.73828v0.30176h-5.584zm48.696 0v-0.27393c1.478-0.055 2.2169-0.35614 2.5459-0.84814 0.328-0.493 0.38216-1.6428 0.41016-2.8198 0.027-1.204 0.02783-3.5581 0.02783-5.9121-1.15 0-1.5061-0.027801-2.6001 0.054199-1.068 0.082-1.8077 0.38384-2.4917 0.98584-0.767 0.685-1.3132 2.1898-1.6142 3.3398h-0.32959v-8.814h0.32959c0.274 1.807 0.54632 3.2294 3.1743 3.7764 1.04 0.219 3.2857 0.21973 3.5317 0.21973 0-0.356 0.02634-4.2973-0.05566-6.8423-0.055-1.342-0.1371-1.6699-0.2461-2.1079-0.384-0.027-1.588-0.082031-2.354-0.082031-2.135 0-3.8871 0.21902-4.5161 0.52002-1.259 0.63-2.628 1.998-4.106 3.832l-0.27393-0.1377 1.8618-4.5981h15.218v0.27393c-0.986 0.137-1.5331 0.21894-2.0801 0.79394-0.438 0.466-0.46582 2.0792-0.46582 3.3662v5.3379c0 1.998 0.02867 4.653 0.05567 5.666 0.027 1.177 0.13618 2.5181 0.49218 2.9561 0.492 0.575 1.3412 0.90304 2.2442 1.04v0.27393h-8.7583zm-101.22-0.30176c2.874 0 4.0225-2.9002 4.0225-6.2402 0-3.038-1.4494-6.2402-3.8584-6.2402-3.011 0-3.9961 3.5573-3.9961 6.0483 0 2.573 1.012 6.4321 3.832 6.4321zm88.03 0c2.874 0 4.0239-2.9002 4.0239-6.2402 0-3.038-1.4509-6.2402-3.8599-6.2402-3.011 0-3.9961 3.5573-3.9961 6.0483 0 2.573 1.013 6.4321 3.832 6.4321zm-43.358-0.68408c2.846 0 4.3242-2.8191 4.3242-5.8301 0-3.01-1.2035-5.8843-4.0225-5.8843-1.068 0-2.4916 0.98424-3.2856 2.4902v6.5142c0.301 1.56 1.5059 2.71 2.9839 2.71zm-12.976-0.68408c1.068 0 1.7812-0.90382 1.7812-1.8618 0-1.861-3.0673-2.9561-4.3813-3.9141v4.2158c0 0.274 0.08259 0.54811 0.32959 0.76611 0.602 0.602 1.3405 0.79394 2.2705 0.79394zm-21.186-14.398c-0.821 0-1.478-0.65703-1.478-1.478s0.65703-1.4502 1.478-1.4502 1.478 0.6292 1.478 1.4502c0 0.794-0.68403 1.478-1.478 1.478z" clip-path="url(#clipPath6-0)"/>
 </g>
</svg>
